# xmcd
#
# Track frame offsets: 
#        182
#        15380
#        28620
#        44215
#        62015
#        79187
#        97515
#        110340
#        129667
#        148085
#
# Disc length: 2598 seconds
#
# Revision: 3
# Processed by: cddbd v1.5.2PL0 Copyright (c) Steve Scherf et al.
# Submitted via: ExactAudioCopy v1.0b4
#
DISCID=7e0a240a
DTITLE=Various Artist - Modern Blues - The Gold Collection CD1(2)
DYEAR=1998
DGENRE=blues
TTITLE0=John Lee Hooker - Ramblin' By Myself
TTITLE1=Lightnin' Hopkins - Baby Please Don't Go
TTITLE2=Magic Sam - 43rd and S. Park Blues
TTITLE3=Son House - Judgement Day
TTITLE4=Howlin' Wolf - Dust My Broom
TTITLE5=Muddy Waters - Howlin' Wolf
TTITLE6=Memphis Slim - I Am The Blues
TTITLE7=Jimmy Witherspoon - Ain't Nobody's Business
TTITLE8=Chuck Berry - Oh Carol!
TTITLE9=Bo Diddley - I'm A Man
EXTD=
EXTT0=
EXTT1=
EXTT2=
EXTT3=
EXTT4=
EXTT5=
EXTT6=
EXTT7=
EXTT8=
EXTT9=
PLAYORDER=
